<?xml version="1.0" encoding="UTF-8" standalone="no"?><svg xmlns="http://www.w3.org/2000/svg" xmlns:xlink="http://www.w3.org/1999/xlink" contentStyleType="text/css" height="702px" preserveAspectRatio="none" style="width:601px;height:702px;background:#FFFFFF;" version="1.1" viewBox="0 0 601 702" width="601px" zoomAndPan="magnify"><defs/><g><!--MD5=[0b4e4b4980470ea387cc45de9bd14b5b]
class Application--><g id="elem_Application"><rect codeLine="2" fill="#F1F1F1" height="48" id="Application" rx="2.5" ry="2.5" style="stroke:#181818;stroke-width:0.5;" width="101" x="7" y="363.5"/><ellipse cx="22" cy="379.5" fill="#ADD1B2" rx="11" ry="11" style="stroke:#181818;stroke-width:1.0;"/><path d="M24.7656,375.375 Q24.9219,375.1563 25.1094,375.0469 Q25.2969,374.9375 25.5156,374.9375 Q25.8906,374.9375 26.125,375.1953 Q26.3594,375.4531 26.3594,376.0625 L26.3594,377.5156 Q26.3594,378.125 26.125,378.3906 Q25.8906,378.6563 25.5156,378.6563 Q25.1719,378.6563 24.9688,378.4531 Q24.7656,378.2656 24.6563,377.75 Q24.6094,377.3906 24.4219,377.2031 Q24.0938,376.8281 23.4844,376.6094 Q22.875,376.3906 22.25,376.3906 Q21.4844,376.3906 20.8516,376.7188 Q20.2188,377.0469 19.7266,377.7969 Q19.2344,378.5469 19.2344,379.5781 L19.2344,380.6719 Q19.2344,381.9063 20.125,382.7266 Q21.0156,383.5469 22.6094,383.5469 Q23.5469,383.5469 24.2031,383.2969 Q24.5938,383.1406 25.0156,382.7031 Q25.2813,382.4375 25.4297,382.3594 Q25.5781,382.2813 25.7813,382.2813 Q26.1094,382.2813 26.3672,382.5391 Q26.625,382.7969 26.625,383.1406 Q26.625,383.4844 26.2813,383.8906 Q25.7813,384.4688 24.9844,384.7969 Q23.9063,385.25 22.6094,385.25 Q21.0938,385.25 19.8906,384.625 Q18.9063,384.125 18.2188,383.0547 Q17.5313,381.9844 17.5313,380.7031 L17.5313,379.5469 Q17.5313,378.2188 18.1484,377.0703 Q18.7656,375.9219 19.8594,375.3047 Q20.9531,374.6875 22.1875,374.6875 Q22.9219,374.6875 23.5703,374.8516 Q24.2188,375.0156 24.7656,375.375 Z " fill="#000000"/><text fill="#000000" font-family="sans-serif" font-size="14" lengthAdjust="spacing" textLength="69" x="36" y="385.2285">Application</text><line style="stroke:#181818;stroke-width:0.5;" x1="8" x2="107" y1="395.5" y2="395.5"/><line style="stroke:#181818;stroke-width:0.5;" x1="8" x2="107" y1="403.5" y2="403.5"/></g><!--MD5=[e424aec602ffa2a1a2322113898a8a4a]
class Launch--><g id="elem_Launch"><rect codeLine="5" fill="#F1F1F1" height="118.4375" id="Launch" rx="2.5" ry="2.5" style="stroke:#181818;stroke-width:0.5;" width="186" x="119.5" y="577"/><ellipse cx="184.75" cy="593" fill="#ADD1B2" rx="11" ry="11" style="stroke:#181818;stroke-width:1.0;"/><path d="M187.5156,588.875 Q187.6719,588.6563 187.8594,588.5469 Q188.0469,588.4375 188.2656,588.4375 Q188.6406,588.4375 188.875,588.6953 Q189.1094,588.9531 189.1094,589.5625 L189.1094,591.0156 Q189.1094,591.625 188.875,591.8906 Q188.6406,592.1563 188.2656,592.1563 Q187.9219,592.1563 187.7188,591.9531 Q187.5156,591.7656 187.4063,591.25 Q187.3594,590.8906 187.1719,590.7031 Q186.8438,590.3281 186.2344,590.1094 Q185.625,589.8906 185,589.8906 Q184.2344,589.8906 183.6016,590.2188 Q182.9688,590.5469 182.4766,591.2969 Q181.9844,592.0469 181.9844,593.0781 L181.9844,594.1719 Q181.9844,595.4063 182.875,596.2266 Q183.7656,597.0469 185.3594,597.0469 Q186.2969,597.0469 186.9531,596.7969 Q187.3438,596.6406 187.7656,596.2031 Q188.0313,595.9375 188.1797,595.8594 Q188.3281,595.7813 188.5313,595.7813 Q188.8594,595.7813 189.1172,596.0391 Q189.375,596.2969 189.375,596.6406 Q189.375,596.9844 189.0313,597.3906 Q188.5313,597.9688 187.7344,598.2969 Q186.6563,598.75 185.3594,598.75 Q183.8438,598.75 182.6406,598.125 Q181.6563,597.625 180.9688,596.5547 Q180.2813,595.4844 180.2813,594.2031 L180.2813,593.0469 Q180.2813,591.7188 180.8984,590.5703 Q181.5156,589.4219 182.6094,588.8047 Q183.7031,588.1875 184.9375,588.1875 Q185.6719,588.1875 186.3203,588.3516 Q186.9688,588.5156 187.5156,588.875 Z " fill="#000000"/><text fill="#000000" font-family="sans-serif" font-size="14" lengthAdjust="spacing" textLength="47" x="205.25" y="598.7285">Launch</text><line style="stroke:#181818;stroke-width:0.5;" x1="120.5" x2="304.5" y1="609" y2="609"/><rect fill="none" height="6" style="stroke:#C82930;stroke-width:1.0;" width="6" x="127.5" y="620.3047"/><text fill="#000000" font-family="sans-serif" font-size="14" lengthAdjust="spacing" textLength="160" x="139.5" y="627.5332">ctrl: MainFrameController</text><line style="stroke:#181818;stroke-width:0.5;" x1="120.5" x2="304.5" y1="634.6094" y2="634.6094"/><ellipse cx="130.5" cy="648.9141" fill="#84BE84" rx="3" ry="3" style="stroke:#038048;stroke-width:1.0;"/><text fill="#000000" font-family="sans-serif" font-size="14" lengthAdjust="spacing" text-decoration="underline" textLength="155" x="139.5" y="653.1426">main(args: String[]): void</text><ellipse cx="130.5" cy="666.5234" fill="#84BE84" rx="3" ry="3" style="stroke:#038048;stroke-width:1.0;"/><text fill="#000000" font-family="sans-serif" font-size="14" lengthAdjust="spacing" textLength="152" x="139.5" y="670.752">start(stage: Stage): void</text><ellipse cx="130.5" cy="684.1328" fill="#84BE84" rx="3" ry="3" style="stroke:#038048;stroke-width:1.0;"/><text fill="#000000" font-family="sans-serif" font-size="14" lengthAdjust="spacing" textLength="71" x="139.5" y="688.3613">stop(): void</text></g><!--MD5=[cb92ebb5b536f2f12e02b2ae0a51f125]
class StackPane--><g id="elem_StackPane"><rect codeLine="12" fill="#F1F1F1" height="48" id="StackPane" rx="2.5" ry="2.5" style="stroke:#181818;stroke-width:0.5;" width="100" x="215.5" y="7"/><ellipse cx="230.5" cy="23" fill="#ADD1B2" rx="11" ry="11" style="stroke:#181818;stroke-width:1.0;"/><path d="M233.2656,18.875 Q233.4219,18.6563 233.6094,18.5469 Q233.7969,18.4375 234.0156,18.4375 Q234.3906,18.4375 234.625,18.6953 Q234.8594,18.9531 234.8594,19.5625 L234.8594,21.0156 Q234.8594,21.625 234.625,21.8906 Q234.3906,22.1563 234.0156,22.1563 Q233.6719,22.1563 233.4688,21.9531 Q233.2656,21.7656 233.1563,21.25 Q233.1094,20.8906 232.9219,20.7031 Q232.5938,20.3281 231.9844,20.1094 Q231.375,19.8906 230.75,19.8906 Q229.9844,19.8906 229.3516,20.2188 Q228.7188,20.5469 228.2266,21.2969 Q227.7344,22.0469 227.7344,23.0781 L227.7344,24.1719 Q227.7344,25.4063 228.625,26.2266 Q229.5156,27.0469 231.1094,27.0469 Q232.0469,27.0469 232.7031,26.7969 Q233.0938,26.6406 233.5156,26.2031 Q233.7813,25.9375 233.9297,25.8594 Q234.0781,25.7813 234.2813,25.7813 Q234.6094,25.7813 234.8672,26.0391 Q235.125,26.2969 235.125,26.6406 Q235.125,26.9844 234.7813,27.3906 Q234.2813,27.9688 233.4844,28.2969 Q232.4063,28.75 231.1094,28.75 Q229.5938,28.75 228.3906,28.125 Q227.4063,27.625 226.7188,26.5547 Q226.0313,25.4844 226.0313,24.2031 L226.0313,23.0469 Q226.0313,21.7188 226.6484,20.5703 Q227.2656,19.4219 228.3594,18.8047 Q229.4531,18.1875 230.6875,18.1875 Q231.4219,18.1875 232.0703,18.3516 Q232.7188,18.5156 233.2656,18.875 Z " fill="#000000"/><text fill="#000000" font-family="sans-serif" font-size="14" lengthAdjust="spacing" textLength="68" x="244.5" y="28.7285">StackPane</text><line style="stroke:#181818;stroke-width:0.5;" x1="216.5" x2="314.5" y1="39" y2="39"/><line style="stroke:#181818;stroke-width:0.5;" x1="216.5" x2="314.5" y1="47" y2="47"/></g><!--MD5=[c9bfd4272ab29b27049bb887bcc81907]
class DetailSurvolePoint--><g id="elem_DetailSurvolePoint"><rect codeLine="15" fill="#F1F1F1" height="83.2188" id="DetailSurvolePoint" rx="2.5" ry="2.5" style="stroke:#181818;stroke-width:0.5;" width="239" x="146" y="115"/><ellipse cx="203.25" cy="131" fill="#ADD1B2" rx="11" ry="11" style="stroke:#181818;stroke-width:1.0;"/><path d="M206.0156,126.875 Q206.1719,126.6563 206.3594,126.5469 Q206.5469,126.4375 206.7656,126.4375 Q207.1406,126.4375 207.375,126.6953 Q207.6094,126.9531 207.6094,127.5625 L207.6094,129.0156 Q207.6094,129.625 207.375,129.8906 Q207.1406,130.1563 206.7656,130.1563 Q206.4219,130.1563 206.2188,129.9531 Q206.0156,129.7656 205.9063,129.25 Q205.8594,128.8906 205.6719,128.7031 Q205.3438,128.3281 204.7344,128.1094 Q204.125,127.8906 203.5,127.8906 Q202.7344,127.8906 202.1016,128.2188 Q201.4688,128.5469 200.9766,129.2969 Q200.4844,130.0469 200.4844,131.0781 L200.4844,132.1719 Q200.4844,133.4063 201.375,134.2266 Q202.2656,135.0469 203.8594,135.0469 Q204.7969,135.0469 205.4531,134.7969 Q205.8438,134.6406 206.2656,134.2031 Q206.5313,133.9375 206.6797,133.8594 Q206.8281,133.7813 207.0313,133.7813 Q207.3594,133.7813 207.6172,134.0391 Q207.875,134.2969 207.875,134.6406 Q207.875,134.9844 207.5313,135.3906 Q207.0313,135.9688 206.2344,136.2969 Q205.1563,136.75 203.8594,136.75 Q202.3438,136.75 201.1406,136.125 Q200.1563,135.625 199.4688,134.5547 Q198.7813,133.4844 198.7813,132.2031 L198.7813,131.0469 Q198.7813,129.7188 199.3984,128.5703 Q200.0156,127.4219 201.1094,126.8047 Q202.2031,126.1875 203.4375,126.1875 Q204.1719,126.1875 204.8203,126.3516 Q205.4688,126.5156 206.0156,126.875 Z " fill="#000000"/><text fill="#000000" font-family="sans-serif" font-size="14" lengthAdjust="spacing" textLength="116" x="223.75" y="136.7285">DetailSurvolePoint</text><line style="stroke:#181818;stroke-width:0.5;" x1="147" x2="384" y1="147" y2="147"/><line style="stroke:#181818;stroke-width:0.5;" x1="147" x2="384" y1="155" y2="155"/><ellipse cx="157" cy="169.3047" fill="#84BE84" rx="3" ry="3" style="stroke:#038048;stroke-width:1.0;"/><text fill="#000000" font-family="sans-serif" font-size="14" lengthAdjust="spacing" textLength="211" x="166" y="173.5332">DetailSurvolePoint(value: double)</text><rect fill="#F24D5C" height="6" style="stroke:#C82930;stroke-width:1.0;" width="6" x="154" y="183.9141"/><text fill="#000000" font-family="sans-serif" font-size="14" lengthAdjust="spacing" textLength="213" x="166" y="191.1426">createLabel(value: double): Label</text></g><!--MD5=[c6dd7699ff04048cb9365e543f81bf42]
class Initializable--><g id="elem_Initializable"><rect codeLine="20" fill="#F1F1F1" height="48" id="Initializable" rx="2.5" ry="2.5" style="stroke:#181818;stroke-width:0.5;" width="102" x="420.5" y="132.5"/><ellipse cx="435.5" cy="148.5" fill="#B4A7E5" rx="11" ry="11" style="stroke:#181818;stroke-width:1.0;"/><path d="M436.4531,145.1406 L436.4531,151.7969 L438.1719,151.7969 Q438.7813,151.7969 439.0469,152.0313 Q439.3125,152.2656 439.3125,152.6563 Q439.3125,153.0313 439.0469,153.2656 Q438.7813,153.5 438.1719,153.5 L433.0313,153.5 Q432.4219,153.5 432.1563,153.2656 Q431.8906,153.0313 431.8906,152.6406 Q431.8906,152.2656 432.1563,152.0313 Q432.4219,151.7969 433.0313,151.7969 L434.75,151.7969 L434.75,145.1406 L433.0313,145.1406 Q432.4219,145.1406 432.1563,144.9063 Q431.8906,144.6719 431.8906,144.2813 Q431.8906,143.9063 432.1563,143.6719 Q432.4219,143.4375 433.0313,143.4375 L438.1719,143.4375 Q438.7813,143.4375 439.0469,143.6719 Q439.3125,143.9063 439.3125,144.2813 Q439.3125,144.6719 439.0469,144.9063 Q438.7813,145.1406 438.1719,145.1406 L436.4531,145.1406 Z " fill="#000000"/><text fill="#000000" font-family="sans-serif" font-size="14" font-style="italic" lengthAdjust="spacing" textLength="70" x="449.5" y="154.2285">Initializable</text><line style="stroke:#181818;stroke-width:0.5;" x1="421.5" x2="521.5" y1="164.5" y2="164.5"/><line style="stroke:#181818;stroke-width:0.5;" x1="421.5" x2="521.5" y1="172.5" y2="172.5"/></g><!--MD5=[c9ebed3cb10f9e0ba8d755fce554597e]
class MainFrameController--><g id="elem_MainFrameController"><rect codeLine="23" fill="#F1F1F1" height="259.3125" id="MainFrameController" rx="2.5" ry="2.5" style="stroke:#181818;stroke-width:0.5;" width="451" x="143" y="258"/><ellipse cx="297.75" cy="274" fill="#ADD1B2" rx="11" ry="11" style="stroke:#181818;stroke-width:1.0;"/><path d="M300.5156,269.875 Q300.6719,269.6563 300.8594,269.5469 Q301.0469,269.4375 301.2656,269.4375 Q301.6406,269.4375 301.875,269.6953 Q302.1094,269.9531 302.1094,270.5625 L302.1094,272.0156 Q302.1094,272.625 301.875,272.8906 Q301.6406,273.1563 301.2656,273.1563 Q300.9219,273.1563 300.7188,272.9531 Q300.5156,272.7656 300.4063,272.25 Q300.3594,271.8906 300.1719,271.7031 Q299.8438,271.3281 299.2344,271.1094 Q298.625,270.8906 298,270.8906 Q297.2344,270.8906 296.6016,271.2188 Q295.9688,271.5469 295.4766,272.2969 Q294.9844,273.0469 294.9844,274.0781 L294.9844,275.1719 Q294.9844,276.4063 295.875,277.2266 Q296.7656,278.0469 298.3594,278.0469 Q299.2969,278.0469 299.9531,277.7969 Q300.3438,277.6406 300.7656,277.2031 Q301.0313,276.9375 301.1797,276.8594 Q301.3281,276.7813 301.5313,276.7813 Q301.8594,276.7813 302.1172,277.0391 Q302.375,277.2969 302.375,277.6406 Q302.375,277.9844 302.0313,278.3906 Q301.5313,278.9688 300.7344,279.2969 Q299.6563,279.75 298.3594,279.75 Q296.8438,279.75 295.6406,279.125 Q294.6563,278.625 293.9688,277.5547 Q293.2813,276.4844 293.2813,275.2031 L293.2813,274.0469 Q293.2813,272.7188 293.8984,271.5703 Q294.5156,270.4219 295.6094,269.8047 Q296.7031,269.1875 297.9375,269.1875 Q298.6719,269.1875 299.3203,269.3516 Q299.9688,269.5156 300.5156,269.875 Z " fill="#000000"/><text fill="#000000" font-family="sans-serif" font-size="14" lengthAdjust="spacing" textLength="133" x="318.25" y="279.7285">MainFrameController</text><line style="stroke:#181818;stroke-width:0.5;" x1="144" x2="593" y1="290" y2="290"/><rect fill="none" height="6" style="stroke:#C82930;stroke-width:1.0;" width="6" x="151" y="301.3047"/><text fill="#000000" font-family="sans-serif" font-size="14" lengthAdjust="spacing" textLength="157" x="163" y="308.5332">chartUpdater: TimerTask</text><rect fill="none" height="6" style="stroke:#C82930;stroke-width:1.0;" width="6" x="151" y="318.9141"/><text fill="#000000" font-family="sans-serif" font-size="14" lengthAdjust="spacing" textLength="106" x="163" y="326.1426">scheduler: Timer</text><rect fill="none" height="6" style="stroke:#C82930;stroke-width:1.0;" width="6" x="151" y="336.5234"/><text fill="#000000" font-family="sans-serif" font-size="14" lengthAdjust="spacing" textLength="116" x="163" y="343.752">config: JsonObject</text><rect fill="none" height="6" style="stroke:#C82930;stroke-width:1.0;" width="6" x="151" y="354.1328"/><text fill="#000000" font-family="sans-serif" font-size="14" lengthAdjust="spacing" textLength="98" x="163" y="361.3613">+30 other fields</text><line style="stroke:#181818;stroke-width:0.5;" x1="144" x2="593" y1="368.4375" y2="368.4375"/><ellipse cx="154" cy="382.7422" fill="#84BE84" rx="3" ry="3" style="stroke:#038048;stroke-width:1.0;"/><text fill="#000000" font-family="sans-serif" font-size="14" lengthAdjust="spacing" textLength="361" x="163" y="386.9707">initialize(location: URL, resources: ResourceBundle): void</text><rect fill="#F24D5C" height="6" style="stroke:#C82930;stroke-width:1.0;" width="6" x="151" y="397.3516"/><text fill="#000000" font-family="sans-serif" font-size="14" lengthAdjust="spacing" textLength="112" x="163" y="404.5801">loadConfig(): void</text><rect fill="#F24D5C" height="6" style="stroke:#C82930;stroke-width:1.0;" width="6" x="151" y="414.9609"/><text fill="#000000" font-family="sans-serif" font-size="14" lengthAdjust="spacing" textLength="115" x="163" y="422.1895">saveConfig(): void</text><rect fill="#F24D5C" height="6" style="stroke:#C82930;stroke-width:1.0;" width="6" x="151" y="432.5703"/><text fill="#000000" font-family="sans-serif" font-size="14" lengthAdjust="spacing" textLength="104" x="163" y="439.7988">clearView(): void</text><rect fill="#F24D5C" height="6" style="stroke:#C82930;stroke-width:1.0;" width="6" x="151" y="450.1797"/><text fill="#000000" font-family="sans-serif" font-size="14" lengthAdjust="spacing" textLength="425" x="163" y="457.4082">createDevice(event: ActionEvent, value: String, button: String): void</text><rect fill="#F24D5C" height="6" style="stroke:#C82930;stroke-width:1.0;" width="6" x="151" y="467.7891"/><text fill="#000000" font-family="sans-serif" font-size="14" lengthAdjust="spacing" textLength="244" x="163" y="475.0176">deleteDevice(event: ActionEvent): void</text><rect fill="#F24D5C" height="6" style="stroke:#C82930;stroke-width:1.0;" width="6" x="151" y="485.3984"/><text fill="#000000" font-family="sans-serif" font-size="14" lengthAdjust="spacing" textLength="280" x="163" y="492.627">onActionCheckBox(event: ActionEvent): void</text><ellipse cx="154" cy="506.0078" fill="#84BE84" rx="3" ry="3" style="stroke:#038048;stroke-width:1.0;"/><text fill="#000000" font-family="sans-serif" font-size="14" lengthAdjust="spacing" textLength="155" x="163" y="510.2363">cancelScheduling(): void</text></g><!--MD5=[f23c1b0c987b4ea89d71a7e1969fa23d]
reverse link Application to Launch--><g id="link_Application_Launch"><path codeLine="38" d="M77.54,430.1 C90.35,455.69 107.82,488.87 125.5,517 C138.09,537.04 153.02,558.1 166.92,576.78 " fill="none" id="Application-backto-Launch" style="stroke:#181818;stroke-width:1.0;"/><polygon fill="none" points="71.09,432.86,68.54,411.83,83.65,426.67,71.09,432.86" style="stroke:#181818;stroke-width:1.0;"/></g><!--MD5=[47f675d88bb587b66f2443b4e576c3d4]
reverse link StackPane to DetailSurvolePoint--><g id="link_StackPane_DetailSurvolePoint"><path codeLine="39" d="M265.5,75.31 C265.5,88.16 265.5,102.19 265.5,114.87 " fill="none" id="StackPane-backto-DetailSurvolePoint" style="stroke:#181818;stroke-width:1.0;"/><polygon fill="none" points="258.5,75.23,265.5,55.23,272.5,75.23,258.5,75.23" style="stroke:#181818;stroke-width:1.0;"/></g><!--MD5=[2972cc7c37e36a250c24c6fec4c67bdf]
reverse link Initializable to MainFrameController--><g id="link_Initializable_MainFrameController"><path codeLine="40" d="M452.79,199.09 C445.16,216.06 435.88,236.69 426.31,257.98 " fill="none" id="Initializable-backto-MainFrameController" style="stroke:#181818;stroke-width:1.0;stroke-dasharray:7.0,7.0;"/><polygon fill="none" points="446.47,196.09,461.06,180.72,459.24,201.83,446.47,196.09" style="stroke:#181818;stroke-width:1.0;"/></g><!--MD5=[52485a76161d096ea1a03dd692befacb]
reverse link MainFrameController to Launch--><g id="link_MainFrameController_Launch"><path codeLine="41" d="M284.29,521.57 C272.02,540.96 259.95,560.02 249.32,576.82 " fill="none" id="MainFrameController-backto-Launch" style="stroke:#181818;stroke-width:1.0;stroke-dasharray:7.0,7.0;"/><polygon fill="#181818" points="287.07,517.16,278.8682,522.6126,284.3893,521.3807,285.6213,526.9017,287.07,517.16" style="stroke:#181818;stroke-width:1.0;"/></g><!--MD5=[50925395c64708738a7d0725351dbd50]
reverse link DetailSurvolePoint to MainFrameController--><g id="link_DetailSurvolePoint_MainFrameController"><path codeLine="42" d="M286,203.08 C293.25,219.2 301.81,238.22 310.61,257.8 " fill="none" id="DetailSurvolePoint-backto-MainFrameController" style="stroke:#181818;stroke-width:1.0;stroke-dasharray:7.0,7.0;"/><polygon fill="#181818" points="283.8,198.18,283.8315,208.0288,285.8453,202.7425,291.1315,204.7564,283.8,198.18" style="stroke:#181818;stroke-width:1.0;"/></g><!--MD5=[c1ffdba944dfa4be44d979f1b9e1ca46]
@startuml SAE DevApp Application Java groupe 12

class Application {
}

class Launch {
	-ctrl: MainFrameController
	+{static} main(args: String[]): void
	+start(stage: Stage): void
	+stop(): void
}

class StackPane {
}

class DetailSurvolePoint {
	+DetailSurvolePoint(value: double)
	-createLabel(value: double): Label
}

interface Initializable {
}

class MainFrameController {
	-chartUpdater: TimerTask
	-scheduler: Timer
	-config: JsonObject
    -+30 other fields
	+initialize(location: URL, resources: ResourceBundle): void
	-loadConfig(): void
	-saveConfig(): void
	-clearView(): void
	-createDevice(event: ActionEvent, value: String, button: String): void
	-deleteDevice(event: ActionEvent): void
	-onActionCheckBox(event: ActionEvent): void
	+cancelScheduling(): void
}

Application <|- - Launch
StackPane <|- - DetailSurvolePoint
Initializable <|.. MainFrameController
MainFrameController <.. Launch
DetailSurvolePoint <.. MainFrameController

@enduml

PlantUML version 1.2022.7(Mon Aug 22 19:01:30 CEST 2022)
(GPL source distribution)
Java Runtime: Java(TM) SE Runtime Environment
JVM: Java HotSpot(TM) 64-Bit Server VM
Default Encoding: Cp1252
Language: fr
Country: FR
--></g></svg>